<svg width="24" height="18" viewBox="0 0 24 18" fill="none" xmlns="http://www.w3.org/2000/svg">
<g clip-path="url(#clip0_34_725)">
<path d="M0 0H24V18H0V0Z" fill="white"/>
<path d="M10.2 0H13.8V18H10.2V0Z" fill="#FF0000"/>
<path d="M0 7.20001H24V10.8H0V7.20001Z" fill="#FF0000"/>
<g style="mix-blend-mode:multiply">
<path fill-rule="evenodd" clip-rule="evenodd" d="M5.50502 13.9912C5.54252 13.3612 5.65502 12.825 5.65502 12.825C5.65502 12.825 5.28752 12.8625 5.10002 12.8625C4.91627 12.8625 4.54502 12.825 4.54502 12.825C4.54502 12.825 4.65752 13.3612 4.69502 13.995C4.06127 13.9575 3.52502 13.845 3.52502 13.845C3.52502 13.845 3.56252 14.1225 3.56252 14.4C3.56252 14.6775 3.52502 14.955 3.52502 14.955C3.52502 14.955 4.06127 14.8425 4.69502 14.805C4.65752 15.4387 4.54502 15.975 4.54502 15.975C4.54502 15.975 4.82252 15.9375 5.10002 15.9375C5.37752 15.9375 5.65502 15.975 5.65502 15.975C5.65502 15.975 5.54252 15.4387 5.50502 14.805C6.13877 14.8425 6.67502 14.955 6.67502 14.955C6.67502 14.955 6.63752 14.5875 6.63752 14.4C6.63752 14.2162 6.67502 13.845 6.67502 13.845C6.67502 13.845 6.13877 13.9575 5.50877 13.995L5.50502 13.9912ZM19.305 3.19124C19.3425 2.56124 19.455 2.02499 19.455 2.02499C19.455 2.02499 19.0875 2.06249 18.9 2.06249C18.7163 2.06249 18.345 2.02499 18.345 2.02499C18.345 2.02499 18.4575 2.56124 18.495 3.19124C17.8613 3.15374 17.325 3.04499 17.325 3.04499C17.325 3.04499 17.3625 3.32249 17.3625 3.59999C17.3625 3.87749 17.325 4.15499 17.325 4.15499C17.325 4.15499 17.8613 4.04249 18.495 4.00499C18.4575 4.63874 18.345 5.17499 18.345 5.17499C18.345 5.17499 18.6225 5.13749 18.9 5.13749C19.1775 5.13749 19.455 5.17499 19.455 5.17499C19.455 5.17499 19.3425 4.63874 19.305 4.00874C19.9388 4.04624 20.475 4.15874 20.475 4.15874C20.475 4.15874 20.4375 3.78374 20.4375 3.59999C20.4375 3.41624 20.475 3.04499 20.475 3.04499C20.475 3.04499 19.9388 3.15749 19.305 3.19499V3.19124ZM5.50502 3.19124C5.54252 2.56124 5.65502 2.02499 5.65502 2.02499C5.65502 2.02499 5.28752 2.06249 5.10002 2.06249C4.91627 2.06249 4.54502 2.02499 4.54502 2.02499C4.54502 2.02499 4.65752 2.56124 4.69502 3.19499C4.06127 3.15749 3.52502 3.04499 3.52502 3.04499C3.52502 3.04499 3.56252 3.32249 3.56252 3.59999C3.56252 3.87749 3.52502 4.15499 3.52502 4.15499C3.52502 4.15499 4.06127 4.04249 4.69502 4.00499C4.65752 4.63874 4.54502 5.17499 4.54502 5.17499C4.54502 5.17499 4.82252 5.13749 5.10002 5.13749C5.37752 5.13749 5.65502 5.17499 5.65502 5.17499C5.65502 5.17499 5.54252 4.63874 5.50502 4.00499C6.13877 4.04249 6.67502 4.15499 6.67502 4.15499C6.67502 4.15499 6.63752 3.78749 6.63752 3.59999C6.63752 3.41624 6.67502 3.04499 6.67502 3.04499C6.67502 3.04499 6.13877 3.15749 5.50877 3.19499L5.50502 3.19124ZM19.305 13.9912C19.3425 13.3612 19.455 12.825 19.455 12.825C19.455 12.825 19.0875 12.8625 18.9 12.8625C18.7163 12.8625 18.345 12.825 18.345 12.825C18.345 12.825 18.4575 13.3612 18.495 13.995C17.8613 13.9575 17.325 13.845 17.325 13.845C17.325 13.845 17.3625 14.1225 17.3625 14.4C17.3625 14.6775 17.325 14.955 17.325 14.955C17.325 14.955 17.8613 14.8425 18.495 14.805C18.4575 15.4387 18.345 15.975 18.345 15.975C18.345 15.975 18.6225 15.9375 18.9 15.9375C19.1775 15.9375 19.455 15.975 19.455 15.975C19.455 15.975 19.3425 15.4387 19.305 14.805C19.9388 14.8425 20.475 14.955 20.475 14.955C20.475 14.955 20.4375 14.5875 20.4375 14.4C20.4375 14.2162 20.475 13.845 20.475 13.845C20.475 13.845 19.9388 13.9575 19.305 13.995V13.9912Z" fill="#FF0000"/>
</g>
</g>
<defs>
<clipPath id="clip0_34_725">
<rect width="24" height="18" fill="white"/>
</clipPath>
</defs>
</svg>
