<svg width="192" height="56" viewBox="0 0 192 56" fill="none" xmlns="http://www.w3.org/2000/svg">
<path d="M7.24686 32.5H3.61821C2.99752 32.5 2.48028 32.4284 2.06649 32.2851C1.66065 32.134 1.33439 31.9111 1.08771 31.6167C0.848981 31.3143 0.681873 30.9403 0.586382 30.4947C0.490891 30.0411 0.443146 29.508 0.443146 28.8952V27.0212C0.443146 26.3846 0.506806 25.8475 0.634127 25.4098C0.769406 24.9642 0.976302 24.6061 1.25482 24.3355C1.53333 24.057 1.8954 23.8581 2.34102 23.7387C2.78665 23.6114 3.3198 23.5477 3.94049 23.5477H7.92723C8.63545 23.5477 9.21636 23.6472 9.66994 23.8462C10.1235 24.0371 10.4776 24.2958 10.7323 24.622C10.9949 24.9483 11.1739 25.3302 11.2694 25.7679C11.3729 26.2056 11.4246 26.6631 11.4246 27.1406V32.5H9.03731V26.7586C9.03731 26.504 9.00548 26.3011 8.94182 26.1499C8.87816 25.9987 8.79063 25.8873 8.67922 25.8156C8.56781 25.7361 8.43254 25.6843 8.27338 25.6605C8.12219 25.6366 7.9511 25.6247 7.76012 25.6247H7.24686V32.5ZM3.96437 25.6247C3.7336 25.6247 3.54262 25.6525 3.39142 25.7082C3.24819 25.7639 3.1328 25.8515 3.04527 25.9708C2.96569 26.0822 2.90999 26.2294 2.87816 26.4125C2.84633 26.5955 2.83041 26.8103 2.83041 27.057V28.9907C2.83041 29.2454 2.84633 29.4642 2.87816 29.6472C2.90999 29.8223 2.96569 29.9695 3.04527 30.0889C3.1328 30.2003 3.24819 30.2838 3.39142 30.3395C3.54262 30.3952 3.7336 30.4231 3.96437 30.4231H5.09832V25.6247H3.96437Z" fill="#343A35"/>
<path d="M16.0416 28.7997C15.787 28.7997 15.592 28.8793 15.4567 29.0385C15.3214 29.1976 15.2538 29.3926 15.2538 29.6233C15.2538 29.8462 15.3214 30.0371 15.4567 30.1963C15.592 30.3475 15.787 30.4231 16.0416 30.4231H17.5575C17.8122 30.4231 17.9992 30.3475 18.1185 30.1963C18.2459 30.0371 18.3095 29.8422 18.3095 29.6114C18.3095 29.3806 18.2459 29.1897 18.1185 29.0385C17.9992 28.8793 17.8122 28.7997 17.5575 28.7997H16.0416ZM15.2538 25.756C14.8957 25.756 14.5894 25.7003 14.3347 25.5889C14.0801 25.4695 13.8692 25.3143 13.7021 25.1233C13.5429 24.9244 13.4236 24.6897 13.344 24.4191C13.2724 24.1485 13.2366 23.8581 13.2366 23.5477H15.6C15.6477 23.7228 15.7193 23.8302 15.8148 23.87C15.9103 23.9098 16.0257 23.9297 16.161 23.9297H19.0973V25.756H18.1782V26.9377C18.6079 26.9377 18.9819 27.0172 19.3002 27.1764C19.6265 27.3355 19.897 27.5424 20.1119 27.7971C20.3268 28.0517 20.4899 28.3422 20.6013 28.6684C20.7127 28.9867 20.7684 29.309 20.7684 29.6353C20.7684 29.9854 20.7087 30.3316 20.5894 30.6737C20.4779 31.0159 20.3069 31.3223 20.0761 31.5928C19.8453 31.8634 19.5469 32.0822 19.1809 32.2493C18.8228 32.4164 18.401 32.5 17.9156 32.5H15.6955C15.2021 32.5 14.7724 32.4204 14.4063 32.2613C14.0403 32.1021 13.7379 31.8952 13.4992 31.6406C13.2604 31.378 13.0814 31.0796 12.962 30.7454C12.8506 30.4111 12.7949 30.069 12.7949 29.7188C12.7949 29.3767 12.8506 29.0385 12.962 28.7042C13.0814 28.37 13.2604 28.0756 13.4992 27.821C13.7459 27.5584 14.0522 27.3475 14.4183 27.1883C14.7843 27.0212 15.218 26.9377 15.7193 26.9377H15.7909V25.756H15.2538Z" fill="#343A35"/>
<path d="M27.2126 32.5V26.7228C27.2126 26.5796 27.1887 26.4443 27.141 26.317C27.1012 26.1817 27.0256 26.0623 26.9142 25.9589C26.8028 25.8554 26.6556 25.7759 26.4726 25.7202C26.2895 25.6565 26.0628 25.6247 25.7922 25.6247C25.5216 25.6247 25.2949 25.6565 25.1118 25.7202C24.9368 25.7759 24.7935 25.8554 24.6821 25.9589C24.5787 26.0544 24.5031 26.1698 24.4553 26.305C24.4155 26.4403 24.3956 26.5796 24.3956 26.7228V32.5H22.0084V26.508C22.0084 25.9271 22.1039 25.4416 22.2949 25.0517C22.4938 24.6618 22.7604 24.3554 23.0946 24.1326C23.4368 23.9019 23.8346 23.7387 24.2882 23.6432C24.7418 23.5477 25.2312 23.5 25.7564 23.5C26.2975 23.5 26.7988 23.5477 27.2604 23.6432C27.7299 23.7308 28.1357 23.8899 28.4779 24.1207C28.828 24.3435 29.1025 24.6499 29.3015 25.0398C29.5004 25.4297 29.5999 25.9191 29.5999 26.508V32.5H27.2126Z" fill="#343A35"/>
<path d="M33.5572 27.9284C33.5572 28.1512 33.6049 28.3422 33.7004 28.5013C33.7959 28.6605 33.9272 28.7958 34.0943 28.9072C34.2614 29.0186 34.4524 29.118 34.6672 29.2056C34.89 29.2851 35.1208 29.3607 35.3595 29.4324C35.7017 29.5358 36.0479 29.6552 36.398 29.7905C36.7481 29.9178 37.0625 30.0968 37.341 30.3276C37.6274 30.5504 37.8582 30.8369 38.0333 31.187C38.2163 31.5371 38.3078 31.9748 38.3078 32.5H36.0877C36.0081 32.2931 35.8847 32.118 35.7176 31.9748C35.5505 31.8236 35.3516 31.7042 35.1208 31.6167C34.898 31.5212 34.6513 31.4536 34.3808 31.4138C34.1102 31.366 33.8357 31.3422 33.5572 31.3422H30.8595V29.3369H31.5638C31.4922 29.2414 31.4285 29.1379 31.3728 29.0265C31.3251 28.9072 31.2853 28.7719 31.2534 28.6207C31.2296 28.4695 31.2097 28.2944 31.1938 28.0955C31.1779 27.8966 31.1699 27.6618 31.1699 27.3912V23.5597H35.7773C36.6924 23.5597 37.4046 23.7825 37.9139 24.2281C38.4312 24.6737 38.6898 25.2984 38.6898 26.1021V27.7374H36.3025V26.3528C36.3025 26.0981 36.2468 25.9151 36.1354 25.8037C36.032 25.6923 35.8649 25.6366 35.6341 25.6366H33.5572V27.9284Z" fill="#343A35"/>
<path d="M45.1754 32.5V26.7228C45.1754 26.5796 45.1515 26.4443 45.1038 26.317C45.064 26.1817 44.9884 26.0623 44.877 25.9589C44.7656 25.8554 44.6184 25.7759 44.4354 25.7202C44.2523 25.6565 44.0255 25.6247 43.755 25.6247C43.4844 25.6247 43.2576 25.6565 43.0746 25.7202C42.8996 25.7759 42.7563 25.8554 42.6449 25.9589C42.5415 26.0544 42.4659 26.1698 42.4181 26.305C42.3783 26.4403 42.3584 26.5796 42.3584 26.7228V32.5H39.9712V26.508C39.9712 25.9271 40.0667 25.4416 40.2576 25.0517C40.4566 24.6618 40.7232 24.3554 41.0574 24.1326C41.3996 23.9019 41.7974 23.7387 42.251 23.6432C42.7046 23.5477 43.194 23.5 43.7192 23.5C44.2603 23.5 44.7616 23.5477 45.2232 23.6432C45.6927 23.7308 46.0985 23.8899 46.4407 24.1207C46.7908 24.3435 47.0653 24.6499 47.2643 25.0398C47.4632 25.4297 47.5627 25.9191 47.5627 26.508V32.5H45.1754Z" fill="#343A35"/>
<path d="M51.5199 23.5477V29.6353C51.5199 29.882 51.6075 30.0769 51.7826 30.2202C51.9656 30.3554 52.2123 30.4231 52.5226 30.4231C52.8648 30.4231 53.1035 30.3515 53.2388 30.2082C53.3741 30.057 53.4417 29.8422 53.4417 29.5637V28.3462H55.9006V30.1127C55.9006 30.6538 55.8091 31.0836 55.6261 31.4019C55.451 31.7122 55.2123 31.9509 54.9099 32.118C54.6075 32.2772 54.2494 32.3806 53.8356 32.4284C53.4218 32.4761 52.9841 32.5 52.5226 32.5C52.0054 32.5 51.5359 32.4642 51.1141 32.3926C50.7003 32.313 50.3462 32.1698 50.0518 31.9629C49.7574 31.748 49.5306 31.4576 49.3714 31.0915C49.2123 30.7175 49.1327 30.2321 49.1327 29.6353V23.5477H51.5199Z" fill="#343A35"/>
<path d="M62.4155 32.5V26.7228C62.4155 26.5796 62.3916 26.4443 62.3439 26.317C62.3041 26.1817 62.2285 26.0623 62.1171 25.9589C62.0057 25.8554 61.8585 25.7759 61.6754 25.7202C61.4924 25.6565 61.2656 25.6247 60.9951 25.6247C60.7245 25.6247 60.4977 25.6565 60.3147 25.7202C60.1396 25.7759 59.9964 25.8554 59.885 25.9589C59.7815 26.0544 59.7059 26.1698 59.6582 26.305C59.6184 26.4403 59.5985 26.5796 59.5985 26.7228V32.5H57.2113V26.508C57.2113 25.9271 57.3067 25.4416 57.4977 25.0517C57.6967 24.6618 57.9632 24.3554 58.2975 24.1326C58.6396 23.9019 59.0375 23.7387 59.4911 23.6432C59.9447 23.5477 60.4341 23.5 60.9593 23.5C61.5004 23.5 62.0017 23.5477 62.4632 23.6432C62.9327 23.7308 63.3386 23.8899 63.6807 24.1207C64.0309 24.3435 64.3054 24.6499 64.5044 25.0398C64.7033 25.4297 64.8028 25.9191 64.8028 26.508V32.5H62.4155Z" fill="#343A35"/>
<path fill-rule="evenodd" clip-rule="evenodd" d="M90.6393 1.90884L88.7596 3.81808V17.6584V31.4991L86.5707 32.1355C85.3668 32.4854 84.1888 32.6526 83.9526 32.5066C83.7164 32.3605 83.2206 32.5153 82.8504 32.8501C82.4802 33.1849 80.9643 33.6701 79.4815 33.9282C74.4495 34.804 74.3893 33.9494 79.1855 29.7259C81.1602 27.987 82.7758 26.5023 82.7758 26.4261C82.7758 26.3499 81.6987 27.1168 80.3823 28.1299C79.0658 29.143 77.9887 29.8404 77.9887 29.6796C77.9887 29.5188 77.5419 29.8073 76.9954 30.3208C75.5166 31.7102 72.8028 36.0422 72.8028 37.0129C72.8028 38.0132 74.2006 39.1025 75.4847 39.1025C76.4321 39.1025 76.7002 39.6635 75.969 40.1156C75.7356 40.2596 75.1971 40.0629 74.7722 39.6783C74.0721 39.0443 73.9995 39.0403 73.9995 39.636C73.9995 39.9971 74.3406 40.5058 74.7575 40.7664C75.1743 41.0265 75.4301 41.463 75.3251 41.736C74.9821 42.6305 75.9606 43.8176 77.4446 44.3075C79.0914 44.851 83.4707 44.5817 86.7299 43.7362L88.7596 43.2095V46.2583V49.3071L90.668 51.1876C91.718 52.2214 92.7053 53.0677 92.8621 53.0677C93.0193 53.0677 93.1477 50.554 93.1477 47.4816C93.1477 44.0235 93.2997 41.8956 93.5467 41.8956C93.7952 41.8956 93.9456 44.1998 93.9456 48.0107C93.9456 54.0173 93.9631 54.1422 94.9429 55.0627L95.9402 56L96.9283 55.0715C97.8953 54.1626 97.9188 53.997 98.0253 47.354C98.1055 42.3568 98.2659 40.521 98.6329 40.3989C99.0175 40.2712 99.1355 41.6805 99.1495 46.5508L99.1679 52.8682L101.144 50.6976L103.121 48.5266V43.6596V38.7921L107.21 37.2922C109.459 36.4671 112.061 35.466 112.994 35.0674C114.524 34.4134 114.689 34.4058 114.689 34.9892C114.689 35.5534 114.793 35.541 115.51 34.8926C116.204 34.2638 116.454 34.2283 117.144 34.6592C118.144 35.2832 118.49 35.0175 117.944 34.0451C117.627 33.4809 117.724 33.1147 118.376 32.4192L119.217 31.5214H117.993C116.142 31.5214 115.993 30.4573 117.743 29.7259C119.509 28.9877 119.477 28.9869 119.477 29.7718C119.477 30.3531 119.567 30.3571 120.397 29.8129C121.055 29.3816 121.519 29.3221 122.023 29.6038C122.934 30.1137 123.25 29.781 122.731 28.8581C122.413 28.2919 122.516 27.9216 123.193 27.1934L124.064 26.2573L122.867 26.3954C121.934 26.5035 121.584 26.3359 121.277 25.6361C120.761 24.459 120.274 24.4921 120.274 25.7043C120.274 26.462 120.005 26.729 119.025 26.9444C118.167 27.1332 117.938 27.3199 118.295 27.5409C118.896 27.912 118.178 28.2412 110.501 31.1168C103.33 33.8025 103.121 33.8444 103.121 32.6035C103.121 31.6918 103.603 31.4105 108.606 29.4059C111.623 28.1969 115.783 26.4724 117.85 25.5738C119.917 24.6753 121.667 23.9403 121.739 23.9403C121.811 23.9403 121.87 24.2376 121.87 24.6007C121.87 25.194 121.951 25.1876 122.669 24.5372C123.33 23.9395 123.642 23.8924 124.465 24.2675C125.573 24.7726 125.657 24.6549 125.029 23.4819C124.692 22.8506 124.748 22.5119 125.291 21.9122C125.956 21.1768 125.943 21.1473 124.938 21.1473C124.263 21.1473 123.723 20.8297 123.413 20.2507L122.933 19.3538L122.568 20.4502C122.304 21.2426 121.935 21.5463 121.239 21.5463C120.252 21.5463 119.906 22.1552 120.736 22.4317C120.989 22.5159 120.047 23.0956 118.641 23.7193C114.444 25.5822 103.396 30.3244 103.253 30.3244C103.181 30.3244 103.121 29.6285 103.121 28.7779V27.2313L107.085 25.5858C109.265 24.6809 111.133 23.9403 111.236 23.9403C111.339 23.9403 111.322 24.3445 111.199 24.8381C110.982 25.7047 111.001 25.7115 111.766 25.0376C112.7 24.2144 113.532 24.1478 114.253 24.8381C114.678 25.2455 114.726 25.111 114.514 24.1035C114.331 23.2317 114.436 22.7206 114.871 22.3591C115.804 21.5842 115.614 21.267 114.33 21.4553C113.419 21.589 113.116 21.4457 112.905 20.7818C112.59 19.7887 111.897 20.056 111.897 21.1708C111.897 21.7761 111.613 21.9481 110.601 21.9581C109.426 21.9696 109.371 22.0215 110.015 22.5099C110.651 22.9927 110.351 23.1982 107.12 24.4921C105.137 25.2858 103.426 25.9353 103.317 25.9353C103.209 25.9353 103.121 21.731 103.121 16.5926V7.24993L101.226 5.58129L99.331 3.91265L99.1315 15.7886C98.9804 24.7906 98.8112 27.7049 98.4334 27.831C98.0429 27.9607 97.9308 25.6317 97.9168 17.0906L97.8985 6.18458L95.9222 8.35517L93.9456 10.5262V20.0025C93.9456 25.8899 93.7944 29.5727 93.5467 29.7259C93.2834 29.8887 93.1477 24.8756 93.1477 14.9862C93.1477 6.74399 93.0065 0 92.8334 0C92.6607 0 91.6733 0.859058 90.6393 1.90884ZM99.0546 30.393C98.8922 32.5967 97.9348 32.9642 97.9348 30.8232C97.9348 29.9637 98.0545 29.1406 98.2009 28.9945C98.8539 28.341 99.1682 28.8557 99.0546 30.393ZM85.6468 30.7581C84.0041 31.9663 83.675 32.3358 84.2717 32.3027C84.5985 32.2847 87.8138 29.5264 87.5086 29.5264C87.4053 29.5264 86.5675 30.0806 85.6468 30.7581ZM77.9887 30.0762C77.9887 30.1588 77.6744 30.4732 77.2906 30.7745C76.6579 31.2704 76.644 31.2565 77.1398 30.6237C77.6612 29.9589 77.9887 29.7478 77.9887 30.0762ZM93.9456 32.2959C93.9456 33.1609 93.7661 33.9793 93.5467 34.115C93.3029 34.2658 93.1477 33.6537 93.1477 32.5425C93.1477 31.5422 93.3272 30.7234 93.5467 30.7234C93.7661 30.7234 93.9456 31.4308 93.9456 32.2959ZM115.487 31.3219C115.487 31.701 115.106 31.9204 114.447 31.9204C113.714 31.9204 113.471 32.0872 113.624 32.4858C113.744 32.797 113.628 33.139 113.368 33.2463C108.023 35.4464 103.758 37.1075 103.454 37.1075C103.242 37.1075 103.125 36.6219 103.194 36.0282C103.311 35.0243 103.724 34.804 109.105 32.8737C115.802 30.4704 115.487 30.5471 115.487 31.3219ZM88.7596 34.0583V35.7968L84.8701 36.8282C82.7307 37.3952 80.2626 37.9789 79.385 38.1254L77.7893 38.3911L79.6853 36.4527C81.4817 34.6157 83.2649 33.7997 88.6599 32.3462C88.7149 32.3314 88.7596 33.1019 88.7596 34.0583ZM99.1315 34.0914C99.1315 34.6273 98.9508 35.1771 98.7298 35.3136C98.2248 35.626 97.7724 34.5152 98.0792 33.716C98.4414 32.7719 99.1315 33.0181 99.1315 34.0914ZM75.4281 34.7661C75.6132 35.0654 76.5367 35.14 78.1698 34.9876L80.6324 34.7574L78.8592 36.5309C77.392 37.9985 76.8279 38.3045 75.5916 38.3045C73.5228 38.3045 72.9974 37.5707 73.7598 35.7457C74.3693 34.2865 74.929 33.9578 75.4281 34.7661ZM93.9456 36.11C93.9456 36.6586 93.7661 37.1075 93.5467 37.1075C93.3272 37.1075 93.1477 36.6586 93.1477 36.11C93.1477 35.5614 93.3272 35.1125 93.5467 35.1125C93.7661 35.1125 93.9456 35.5614 93.9456 36.11ZM88.6878 37.6063C88.5757 38.3939 88.0954 38.6062 84.7704 39.3387C82.686 39.7976 80.0264 40.2844 78.86 40.42C76.9994 40.6367 76.7557 40.5836 76.8698 39.9847C76.948 39.5745 77.5555 39.1811 78.392 38.9992C79.1576 38.8324 81.579 38.2686 83.7731 37.7459C88.892 36.5269 88.8406 36.5285 88.6878 37.6063ZM99.0581 37.775C98.8746 39.3284 97.9348 39.4652 97.9348 37.9386C97.9348 37.0879 98.1275 36.7085 98.5595 36.7085C99.0027 36.7085 99.1479 37.0193 99.0581 37.775ZM93.9456 39.302C93.9456 40.0701 93.7661 40.6985 93.5467 40.6985C93.3272 40.6985 93.1477 40.0701 93.1477 39.302C93.1477 38.5339 93.3272 37.9055 93.5467 37.9055C93.7661 37.9055 93.9456 38.5339 93.9456 39.302ZM88.7596 40.8709V42.2403L85.668 42.9366C81.5184 43.871 77.439 43.9101 76.5526 43.024C75.2529 41.7244 76.0867 41.2348 80.0472 40.9707C82.0964 40.8338 84.6707 40.4635 85.7677 40.1475C88.669 39.3116 88.7596 39.3335 88.7596 40.8709Z" fill="#2D2829"/>
<path d="M140.552 32.5H136.923C136.303 32.5 135.785 32.4284 135.372 32.2851C134.966 32.134 134.639 31.9111 134.393 31.6167C134.154 31.3143 133.987 30.9403 133.891 30.4947C133.796 30.0411 133.748 29.508 133.748 28.8952V27.0212C133.748 26.3846 133.812 25.8475 133.939 25.4098C134.074 24.9642 134.281 24.6061 134.56 24.3355C134.838 24.057 135.2 23.8581 135.646 23.7387C136.092 23.6114 136.625 23.5477 137.246 23.5477H141.232C141.941 23.5477 142.521 23.6472 142.975 23.8462C143.429 24.0371 143.783 24.2958 144.037 24.622C144.3 24.9483 144.479 25.3302 144.574 25.7679C144.678 26.2056 144.73 26.6631 144.73 27.1406V32.5H142.342V26.7586C142.342 26.504 142.311 26.3011 142.247 26.1499C142.183 25.9987 142.096 25.8873 141.984 25.8156C141.873 25.7361 141.738 25.6843 141.578 25.6605C141.427 25.6366 141.256 25.6247 141.065 25.6247H140.552V32.5ZM137.269 25.6247C137.039 25.6247 136.848 25.6525 136.697 25.7082C136.553 25.7639 136.438 25.8515 136.35 25.9708C136.271 26.0822 136.215 26.2294 136.183 26.4125C136.151 26.5955 136.135 26.8103 136.135 27.057V28.9907C136.135 29.2454 136.151 29.4642 136.183 29.6472C136.215 29.8223 136.271 29.9695 136.35 30.0889C136.438 30.2003 136.553 30.2838 136.697 30.3395C136.848 30.3952 137.039 30.4231 137.269 30.4231H138.403V25.6247H137.269Z" fill="#343A35"/>
<path d="M150.576 30.4231V26.687C149.876 26.5676 149.303 26.4204 148.857 26.2454C148.42 26.0703 148.073 25.8793 147.819 25.6724C147.612 25.5053 147.453 25.3342 147.341 25.1592C147.238 24.9841 147.158 24.809 147.103 24.634C147.055 24.4589 147.027 24.2878 147.019 24.1207C147.011 23.9536 147.007 23.7944 147.007 23.6432V23.5477H149.227C149.227 23.6114 149.235 23.679 149.251 23.7507C149.267 23.8223 149.311 23.9019 149.383 23.9894C149.454 24.0769 149.566 24.1684 149.717 24.2639C149.876 24.3515 150.091 24.443 150.361 24.5385C150.64 24.634 150.99 24.7294 151.412 24.8249C151.833 24.9204 152.351 25.0119 152.963 25.0995V32.5H149.001C148.42 32.5 147.934 32.4562 147.544 32.3687C147.162 32.2732 146.852 32.118 146.613 31.9032C146.383 31.6804 146.219 31.382 146.124 31.008C146.028 30.634 145.981 30.1605 145.981 29.5875V28.3462H148.368V29.5875C148.368 29.7626 148.376 29.9058 148.392 30.0172C148.416 30.1207 148.455 30.2042 148.511 30.2679C148.567 30.3236 148.642 30.3634 148.738 30.3873C148.833 30.4111 148.961 30.4231 149.12 30.4231H150.576Z" fill="#343A35"/>
<path d="M159.829 30.4231V26.3886C159.829 26.2294 159.801 26.1021 159.746 26.0066C159.698 25.9032 159.634 25.8236 159.555 25.7679C159.483 25.7122 159.399 25.6764 159.304 25.6605C159.208 25.6366 159.113 25.6247 159.017 25.6247H158.838V27.3912H156.571V25.6247H154.637V23.5477H159.173C160.231 23.5477 161.003 23.7825 161.488 24.252C161.974 24.7215 162.216 25.4496 162.216 26.4363V32.5H157.466C157.068 32.5 156.694 32.4523 156.344 32.3568C156.002 32.2533 155.703 32.0981 155.448 31.8912C155.194 31.6844 154.995 31.4218 154.852 31.1034C154.708 30.7851 154.637 30.4111 154.637 29.9814V28.3462H157.024V29.7666C157.024 30.0133 157.08 30.1844 157.191 30.2798C157.303 30.3753 157.549 30.4231 157.931 30.4231H159.829Z" fill="#343A35"/>
<path d="M166.533 32.5C166.135 32.5 165.761 32.4523 165.411 32.3568C165.069 32.2613 164.771 32.1141 164.516 31.9151C164.261 31.7162 164.062 31.4615 163.919 31.1512C163.776 30.8329 163.704 30.4589 163.704 30.0292V28.3462H166.092V29.8024C166.092 30.0411 166.143 30.2042 166.247 30.2918C166.358 30.3793 166.605 30.4231 166.987 30.4231H168.538V26.2692C168.538 26.0146 168.479 25.8435 168.359 25.756C168.24 25.6684 168.065 25.6247 167.834 25.6247H166.796C166.565 25.6247 166.39 25.6605 166.271 25.7321C166.151 25.7958 166.092 25.9629 166.092 26.2334V26.7228H163.704V26.0186C163.704 25.6286 163.748 25.2825 163.836 24.9801C163.931 24.6698 164.082 24.4111 164.289 24.2042C164.504 23.9894 164.786 23.8263 165.137 23.7149C165.487 23.6034 165.924 23.5477 166.45 23.5477H168.013C168.538 23.5477 168.984 23.5955 169.35 23.691C169.716 23.7865 170.015 23.9337 170.245 24.1326C170.484 24.3316 170.655 24.5902 170.759 24.9085C170.87 25.2188 170.926 25.5889 170.926 26.0186V32.5H166.533Z" fill="#343A35"/>
<path d="M176.506 28.7997H174.87V32.5H172.483V27.1406C172.483 25.939 172.762 25.0398 173.319 24.443C173.876 23.8462 174.771 23.5477 176.004 23.5477H181.495V25.6247H176.052C175.646 25.6247 175.348 25.7042 175.157 25.8634C174.966 26.0146 174.87 26.3011 174.87 26.7228H179.215C179.836 26.7228 180.357 26.7706 180.779 26.866C181.201 26.9536 181.535 27.1127 181.781 27.3435C182.036 27.5743 182.215 27.8886 182.319 28.2865C182.43 28.6764 182.486 29.1777 182.486 29.7905V32.5H180.098V29.9218C180.098 29.1737 179.804 28.7997 179.215 28.7997H178.738V31.3422H176.506V28.7997Z" fill="#343A35"/>
<path d="M189.17 32.5V26.7228C189.17 26.5796 189.146 26.4443 189.098 26.317C189.058 26.1817 188.983 26.0623 188.871 25.9589C188.76 25.8554 188.613 25.7759 188.43 25.7202C188.247 25.6565 188.02 25.6247 187.749 25.6247C187.479 25.6247 187.252 25.6565 187.069 25.7202C186.894 25.7759 186.75 25.8554 186.639 25.9589C186.536 26.0544 186.46 26.1698 186.412 26.305C186.373 26.4403 186.353 26.5796 186.353 26.7228V32.5H183.965V26.508C183.965 25.9271 184.061 25.4416 184.252 25.0517C184.451 24.6618 184.717 24.3554 185.052 24.1326C185.394 23.9019 185.792 23.7387 186.245 23.6432C186.699 23.5477 187.188 23.5 187.713 23.5C188.254 23.5 188.756 23.5477 189.217 23.6432C189.687 23.7308 190.093 23.8899 190.435 24.1207C190.785 24.3435 191.06 24.6499 191.258 25.0398C191.457 25.4297 191.557 25.9191 191.557 26.508V32.5H189.17Z" fill="#343A35"/>
</svg>
