<svg width="54" height="56" viewBox="0 0 54 56" fill="none" xmlns="http://www.w3.org/2000/svg">
<path fill-rule="evenodd" clip-rule="evenodd" d="M18.6393 1.90884L16.7596 3.81808V17.6584V31.4991L14.5707 32.1355C13.3668 32.4854 12.1888 32.6526 11.9526 32.5066C11.7164 32.3605 11.2206 32.5153 10.8504 32.8501C10.4802 33.1849 8.96429 33.6701 7.4815 33.9282C2.44951 34.804 2.38927 33.9494 7.1855 29.7259C9.16016 27.987 10.7758 26.5023 10.7758 26.4261C10.7758 26.3499 9.6987 27.1168 8.38226 28.1299C7.06582 29.143 5.98874 29.8404 5.98874 29.6796C5.98874 29.5188 5.54195 29.8073 4.99542 30.3208C3.51662 31.7102 0.802765 36.0422 0.802765 37.0129C0.802765 38.0132 2.20058 39.1025 3.48471 39.1025C4.43215 39.1025 4.70022 39.6635 3.969 40.1156C3.73563 40.2596 3.19709 40.0629 2.77224 39.6783C2.07213 39.0443 1.99953 39.0403 1.99953 39.636C1.99953 39.9971 2.34061 40.5058 2.75748 40.7664C3.17435 41.0265 3.43006 41.463 3.32514 41.736C2.98207 42.6305 3.96062 43.8176 5.44461 44.3075C7.09135 44.851 11.4707 44.5817 14.7299 43.7362L16.7596 43.2095V46.2583V49.3071L18.668 51.1876C19.718 52.2214 20.7053 53.0677 20.8621 53.0677C21.0193 53.0677 21.1477 50.554 21.1477 47.4816C21.1477 44.0235 21.2997 41.8956 21.5467 41.8956C21.7952 41.8956 21.9456 44.1998 21.9456 48.0107C21.9456 54.0173 21.9631 54.1422 22.9429 55.0627L23.9402 56L24.9283 55.0715C25.8953 54.1626 25.9188 53.997 26.0253 47.354C26.1055 42.3568 26.2659 40.521 26.6329 40.3989C27.0175 40.2712 27.1355 41.6805 27.1495 46.5508L27.1679 52.8682L29.1441 50.6976L31.1208 48.5266V43.6596V38.7921L35.2097 37.2922C37.4588 36.4671 40.0614 35.466 40.994 35.0674C42.5243 34.4134 42.6895 34.4058 42.6895 34.9892C42.6895 35.5534 42.7932 35.541 43.5096 34.8926C44.2042 34.2638 44.4543 34.2283 45.144 34.6592C46.1437 35.2832 46.49 35.0175 45.9439 34.0451C45.6271 33.4809 45.7245 33.1147 46.3759 32.4192L47.2168 31.5214H45.9929C44.1415 31.5214 43.9931 30.4573 45.7428 29.7259C47.5088 28.9877 47.4765 28.9869 47.4765 29.7718C47.4765 30.3531 47.5667 30.3571 48.3972 29.8129C49.055 29.3816 49.519 29.3221 50.0228 29.6038C50.9336 30.1137 51.2495 29.781 50.7309 28.8581C50.413 28.2919 50.5159 27.9216 51.1929 27.1934L52.0641 26.2573L50.8673 26.3954C49.9343 26.5035 49.5836 26.3359 49.2768 25.6361C48.7606 24.459 48.2744 24.4921 48.2744 25.7043C48.2744 26.462 48.0051 26.729 47.0245 26.9444C46.1669 27.1332 45.9379 27.3199 46.2949 27.5409C46.8957 27.912 46.1784 28.2412 38.5008 31.1168C31.3298 33.8025 31.1208 33.8444 31.1208 32.6035C31.1208 31.6918 31.6031 31.4105 36.6059 29.4059C39.623 28.1969 43.7825 26.4724 45.8497 25.5739C47.9173 24.6753 49.6674 23.9403 49.7392 23.9403C49.8114 23.9403 49.87 24.2376 49.87 24.6007C49.87 25.194 49.951 25.1876 50.6695 24.5372C51.3301 23.9395 51.642 23.8924 52.4646 24.2675C53.5728 24.7726 53.6574 24.6549 53.0295 23.4819C52.692 22.8506 52.7483 22.5119 53.2908 21.9122C53.9562 21.1768 53.9426 21.1473 52.9377 21.1473C52.2628 21.1473 51.723 20.8297 51.4131 20.2507L50.9332 19.3538L50.5678 20.4502C50.3037 21.2426 49.9355 21.5463 49.2386 21.5463C48.252 21.5463 47.9062 22.1552 48.7355 22.4317C48.9888 22.5159 48.0466 23.0956 46.6412 23.7193C42.4441 25.5822 31.396 30.3244 31.2532 30.3244C31.1806 30.3244 31.1208 29.6285 31.1208 28.7779V27.2313L35.0848 25.5858C37.2649 24.6809 39.1331 23.9403 39.236 23.9403C39.3389 23.9403 39.3222 24.3445 39.1985 24.8381C38.9819 25.7047 39.0014 25.7115 39.7662 25.0376C40.6996 24.2144 41.5322 24.1478 42.2526 24.8381C42.6783 25.2455 42.7262 25.111 42.5143 24.1035C42.3308 23.2317 42.4358 22.7206 42.8714 22.3591C43.8045 21.5842 43.6142 21.267 42.33 21.4553C41.4193 21.589 41.1157 21.4457 40.9051 20.7818C40.5899 19.7887 39.897 20.056 39.897 21.1708C39.897 21.7761 39.6134 21.9481 38.6005 21.9581C37.4261 21.9696 37.3711 22.0215 38.0145 22.5099C38.6512 22.9927 38.3512 23.1982 35.1195 24.4921C33.1365 25.2858 31.4255 25.9353 31.3174 25.9353C31.2093 25.9353 31.1208 21.731 31.1208 16.5926V7.24993L29.2259 5.58129L27.331 3.91265L27.1315 15.7886C26.9804 24.7906 26.8112 27.7049 26.4334 27.831C26.0429 27.9607 25.9308 25.6317 25.9168 17.0906L25.8985 6.18458L23.9222 8.35517L21.9456 10.5262V20.0025C21.9456 25.8899 21.7944 29.5727 21.5467 29.7259C21.2834 29.8887 21.1477 24.8756 21.1477 14.9862C21.1477 6.74399 21.0065 0 20.8334 0C20.6607 0 19.6733 0.859058 18.6393 1.90884ZM27.0546 30.393C26.8922 32.5967 25.9348 32.9642 25.9348 30.8232C25.9348 29.9637 26.0545 29.1406 26.2009 28.9945C26.8539 28.341 27.1682 28.8557 27.0546 30.393ZM13.6468 30.7581C12.0041 31.9663 11.675 32.3358 12.2717 32.3027C12.5985 32.2847 15.8138 29.5264 15.5086 29.5264C15.4053 29.5264 14.5675 30.0806 13.6468 30.7581ZM5.98874 30.0762C5.98874 30.1588 5.67439 30.4732 5.29063 30.7745C4.65794 31.2704 4.64397 31.2565 5.13983 30.6237C5.66122 29.9589 5.98874 29.7478 5.98874 30.0762ZM21.9456 32.2959C21.9456 33.1609 21.7661 33.9793 21.5467 34.115C21.3029 34.2658 21.1477 33.6537 21.1477 32.5425C21.1477 31.5422 21.3272 30.7234 21.5467 30.7234C21.7661 30.7234 21.9456 31.4308 21.9456 32.2959ZM43.4873 31.3219C43.4873 31.701 43.1059 31.9204 42.4473 31.9204C41.7137 31.9204 41.4712 32.0872 41.6243 32.4858C41.7436 32.797 41.6283 33.139 41.3678 33.2463C36.0227 35.4464 31.7582 37.1075 31.4539 37.1075C31.2416 37.1075 31.1247 36.6219 31.1942 36.0282C31.3114 35.0243 31.7239 34.804 37.1046 32.8737C43.8025 30.4704 43.4873 30.5471 43.4873 31.3219ZM16.7596 34.0583V35.7968L12.8701 36.8282C10.7307 37.3952 8.26259 37.9789 7.38496 38.1254L5.78928 38.3911L7.68535 36.4527C9.48169 34.6157 11.2649 33.7997 16.6599 32.3462C16.7149 32.3314 16.7596 33.1019 16.7596 34.0583ZM27.1315 34.0914C27.1315 34.6273 26.9508 35.1771 26.7298 35.3136C26.2248 35.626 25.7724 34.5152 26.0792 33.716C26.4414 32.7719 27.1315 33.0181 27.1315 34.0914ZM3.42806 34.7661C3.61316 35.0654 4.53667 35.14 6.16985 34.9876L8.63239 34.7574L6.85918 36.5309C5.39195 37.9985 4.82788 38.3045 3.59162 38.3045C1.52282 38.3045 0.997438 37.5707 1.75978 35.7457C2.36933 34.2865 2.92901 33.9578 3.42806 34.7661ZM21.9456 36.11C21.9456 36.6586 21.7661 37.1075 21.5467 37.1075C21.3272 37.1075 21.1477 36.6586 21.1477 36.11C21.1477 35.5614 21.3272 35.1125 21.5467 35.1125C21.7661 35.1125 21.9456 35.5614 21.9456 36.11ZM16.6878 37.6063C16.5757 38.3939 16.0954 38.6062 12.7704 39.3387C10.686 39.7976 8.02643 40.2844 6.85998 40.42C4.99941 40.6367 4.75567 40.5836 4.86976 39.9847C4.94795 39.5745 5.55551 39.1811 6.39205 38.9992C7.15758 38.8324 9.57903 38.2686 11.7731 37.7459C16.892 36.5269 16.8406 36.5285 16.6878 37.6063ZM27.0581 37.775C26.8746 39.3284 25.9348 39.4652 25.9348 37.9386C25.9348 37.0879 26.1275 36.7085 26.5595 36.7085C27.0027 36.7085 27.1479 37.0193 27.0581 37.775ZM21.9456 39.302C21.9456 40.0701 21.7661 40.6985 21.5467 40.6985C21.3272 40.6985 21.1477 40.0701 21.1477 39.302C21.1477 38.5339 21.3272 37.9055 21.5467 37.9055C21.7661 37.9055 21.9456 38.5339 21.9456 39.302ZM16.7596 40.8709V42.2403L13.668 42.9366C9.51839 43.871 5.43902 43.9101 4.55262 43.0239C3.25294 41.7244 4.08668 41.2348 8.04717 40.9707C10.0964 40.8338 12.6707 40.4635 13.7677 40.1475C16.669 39.3116 16.7596 39.3335 16.7596 40.8709Z" fill="#2D2829"/>
</svg>
