<svg width="126" height="56" viewBox="0 0 126 56" fill="none" xmlns="http://www.w3.org/2000/svg">
<path fill-rule="evenodd" clip-rule="evenodd" d="M17.8366 1.90884L15.9568 3.81808V17.6584V31.4991L13.768 32.1355C12.564 32.4854 11.386 32.6526 11.1498 32.5066C10.9137 32.3605 10.4178 32.5153 10.0476 32.8501C9.67742 33.1849 8.16152 33.6701 6.67873 33.9282C1.64675 34.804 1.58651 33.9494 6.38274 29.7259C8.35739 27.987 9.97302 26.5023 9.97302 26.4261C9.97302 26.3499 8.89594 27.1168 7.5795 28.1299C6.26306 29.143 5.18597 29.8404 5.18597 29.6796C5.18597 29.5188 4.73918 29.8073 4.19266 30.3208C2.71386 31.7102 0 36.0422 0 37.0129C0 38.0132 1.39782 39.1025 2.68195 39.1025C3.62938 39.1025 3.89746 39.6635 3.16624 40.1156C2.93287 40.2596 2.39432 40.0629 1.96947 39.6783C1.26937 39.0443 1.19676 39.0403 1.19676 39.636C1.19676 39.9971 1.53784 40.5058 1.95471 40.7664C2.37158 41.0265 2.62729 41.463 2.52238 41.736C2.17931 42.6305 3.15786 43.8176 4.64184 44.3075C6.28859 44.851 10.6679 44.5817 13.9271 43.7362L15.9568 43.2095V46.2583V49.3071L17.8653 51.1876C18.9152 52.2214 19.9026 53.0677 20.0593 53.0677C20.2165 53.0677 20.345 50.554 20.345 47.4816C20.345 44.0235 20.497 41.8956 20.7439 41.8956C20.9924 41.8956 21.1428 44.1998 21.1428 48.0107C21.1428 54.0173 21.1604 54.1422 22.1401 55.0627L23.1374 56L24.1255 55.0715C25.0925 54.1626 25.1161 53.997 25.2226 47.354C25.3028 42.3568 25.4631 40.521 25.8301 40.3989C26.2147 40.2712 26.3328 41.6805 26.3467 46.5508L26.3651 52.8682L28.3413 50.6976L30.318 48.5266V43.6596V38.7921L34.4069 37.2922C36.656 36.4671 39.2586 35.466 40.1913 35.0674C41.7215 34.4134 41.8867 34.4058 41.8867 34.9892C41.8867 35.5534 41.9904 35.541 42.7069 34.8926C43.4014 34.2638 43.6515 34.2283 44.3413 34.6592C45.341 35.2832 45.6872 35.0175 45.1411 34.0451C44.8244 33.4809 44.9217 33.1147 45.5731 32.4192L46.4141 31.5214H45.1902C43.3388 31.5214 43.1904 30.4573 44.94 29.7259C46.7061 28.9877 46.6738 28.9869 46.6738 29.7718C46.6738 30.3531 46.7639 30.3571 47.5945 29.8129C48.2523 29.3816 48.7162 29.3221 49.2201 29.6038C50.1308 30.1137 50.4467 29.781 49.9282 28.8581C49.6102 28.2919 49.7131 27.9216 50.3901 27.1934L51.2613 26.2573L50.0646 26.3954C49.1315 26.5035 48.7809 26.3359 48.4741 25.6361C47.9579 24.459 47.4716 24.4921 47.4716 25.7043C47.4716 26.462 47.2023 26.729 46.2218 26.9444C45.3641 27.1332 45.1351 27.3199 45.4921 27.5409C46.0929 27.912 45.3757 28.2412 37.698 31.1168C30.527 33.8025 30.318 33.8444 30.318 32.6035C30.318 31.6918 30.8003 31.4105 35.8032 29.4059C38.8202 28.1969 42.9797 26.4724 45.047 25.5739C47.1146 24.6753 48.8646 23.9403 48.9364 23.9403C49.0086 23.9403 49.0673 24.2376 49.0673 24.6007C49.0673 25.194 49.1483 25.1876 49.8667 24.5372C50.5273 23.9395 50.8393 23.8924 51.6619 24.2675C52.7701 24.7726 52.8546 24.6549 52.2267 23.4819C51.8892 22.8506 51.9455 22.5119 52.488 21.9122C53.1534 21.1768 53.1399 21.1473 52.135 21.1473C51.46 21.1473 50.9203 20.8297 50.6103 20.2507L50.1304 19.3538L49.765 20.4502C49.5009 21.2426 49.1327 21.5463 48.4358 21.5463C47.4493 21.5463 47.1034 22.1552 47.9327 22.4317C48.1861 22.5159 47.2438 23.0956 45.8384 23.7193C41.6414 25.5822 30.5932 30.3244 30.4504 30.3244C30.3778 30.3244 30.318 29.6285 30.318 28.7779V27.2313L34.2821 25.5858C36.4622 24.6809 38.3303 23.9403 38.4332 23.9403C38.5362 23.9403 38.5194 24.3445 38.3957 24.8381C38.1791 25.7047 38.1987 25.7115 38.9634 25.0376C39.8969 24.2144 40.7294 24.1478 41.4499 24.8381C41.8755 25.2455 41.9234 25.111 41.7116 24.1035C41.5281 23.2317 41.633 22.7206 42.0686 22.3591C43.0017 21.5842 42.8114 21.267 41.5273 21.4553C40.6165 21.589 40.313 21.4457 40.1023 20.7818C39.7872 19.7887 39.0943 20.056 39.0943 21.1708C39.0943 21.7761 38.8106 21.9481 37.7978 21.9581C36.6233 21.9696 36.5683 22.0215 37.2117 22.5099C37.8484 22.9927 37.5484 23.1982 34.3168 24.4921C32.3337 25.2858 30.6228 25.9353 30.5147 25.9353C30.4066 25.9353 30.318 21.731 30.318 16.5926V7.24993L28.4231 5.58129L26.5282 3.91265L26.3288 15.7886C26.1776 24.7906 26.0084 27.7049 25.6307 27.831C25.2401 27.9607 25.128 25.6317 25.1141 17.0906L25.0957 6.18458L23.1195 8.35517L21.1428 10.5262V20.0025C21.1428 25.8899 20.9916 29.5727 20.7439 29.7259C20.4806 29.8887 20.345 24.8756 20.345 14.9862C20.345 6.74399 20.2038 0 20.0306 0C19.8579 0 18.8706 0.859058 17.8366 1.90884ZM26.2518 30.393C26.0894 32.5967 25.132 32.9642 25.132 30.8232C25.132 29.9637 25.2517 29.1406 25.3981 28.9945C26.0511 28.341 26.3655 28.8557 26.2518 30.393ZM12.8441 30.7581C11.2013 31.9663 10.8722 32.3358 11.469 32.3027C11.7957 32.2847 15.011 29.5264 14.7058 29.5264C14.6025 29.5264 13.7648 30.0806 12.8441 30.7581ZM5.18597 30.0762C5.18597 30.1588 4.87162 30.4732 4.48786 30.7745C3.85517 31.2704 3.84121 31.2565 4.33707 30.6237C4.85846 29.9589 5.18597 29.7478 5.18597 30.0762ZM21.1428 32.2959C21.1428 33.1609 20.9633 33.9793 20.7439 34.115C20.5001 34.2658 20.345 33.6537 20.345 32.5425C20.345 31.5422 20.5245 30.7234 20.7439 30.7234C20.9633 30.7234 21.1428 31.4308 21.1428 32.2959ZM42.6845 31.3219C42.6845 31.701 42.3032 31.9204 41.6446 31.9204C40.9109 31.9204 40.6684 32.0872 40.8216 32.4858C40.9409 32.797 40.8256 33.139 40.5651 33.2463C35.2199 35.4464 30.9555 37.1075 30.6511 37.1075C30.4389 37.1075 30.322 36.6219 30.3914 36.0282C30.5087 35.0243 30.9212 34.804 36.3018 32.8737C42.9997 30.4704 42.6845 30.5471 42.6845 31.3219ZM15.9568 34.0583V35.7968L12.0674 36.8282C9.92795 37.3952 7.45982 37.9789 6.5822 38.1254L4.98651 38.3911L6.88258 36.4527C8.67892 34.6157 10.4621 33.7997 15.8571 32.3462C15.9122 32.3314 15.9568 33.1019 15.9568 34.0583ZM26.3288 34.0914C26.3288 34.6273 26.1481 35.1771 25.9271 35.3136C25.422 35.626 24.9697 34.5152 25.2764 33.716C25.6386 32.7719 26.3288 33.0181 26.3288 34.0914ZM2.6253 34.7661C2.8104 35.0654 3.7339 35.14 5.36708 34.9876L7.82962 34.7574L6.05642 36.5309C4.58919 37.9985 4.02511 38.3045 2.78886 38.3045C0.720052 38.3045 0.194673 37.5707 0.957011 35.7457C1.56656 34.2865 2.12625 33.9578 2.6253 34.7661ZM21.1428 36.11C21.1428 36.6586 20.9633 37.1075 20.7439 37.1075C20.5245 37.1075 20.345 36.6586 20.345 36.11C20.345 35.5614 20.5245 35.1125 20.7439 35.1125C20.9633 35.1125 21.1428 35.5614 21.1428 36.11ZM15.885 37.6063C15.7729 38.3939 15.2926 38.6062 11.9676 39.3387C9.88327 39.7976 7.22366 40.2844 6.05722 40.42C4.19665 40.6367 3.95291 40.5836 4.067 39.9847C4.14519 39.5745 4.75274 39.1811 5.58928 38.9992C6.35481 38.8324 8.77626 38.2686 10.9703 37.7459C16.0893 36.5269 16.0378 36.5285 15.885 37.6063ZM26.2554 37.775C26.0719 39.3284 25.132 39.4652 25.132 37.9386C25.132 37.0879 25.3247 36.7085 25.7567 36.7085C26.1999 36.7085 26.3451 37.0193 26.2554 37.775ZM21.1428 39.302C21.1428 40.0701 20.9633 40.6985 20.7439 40.6985C20.5245 40.6985 20.345 40.0701 20.345 39.302C20.345 38.5339 20.5245 37.9055 20.7439 37.9055C20.9633 37.9055 21.1428 38.5339 21.1428 39.302ZM15.9568 40.8709V42.2403L12.8652 42.9366C8.71562 43.871 4.63626 43.9101 3.74986 43.0239C2.45017 41.7244 3.28392 41.2348 7.2444 40.9707C9.29366 40.8338 11.8679 40.4635 12.9649 40.1475C15.8663 39.3116 15.9568 39.3335 15.9568 40.8709Z" fill="#2D2829"/>
<path d="M67.7491 24H64.1205C63.4998 24 62.9826 23.9284 62.5688 23.7851C62.1629 23.634 61.8367 23.4111 61.59 23.1167C61.3513 22.8143 61.1842 22.4403 61.0887 21.9947C60.9932 21.5411 60.9454 21.008 60.9454 20.3952V18.5212C60.9454 17.8846 61.0091 17.3475 61.1364 16.9098C61.2717 16.4642 61.4786 16.1061 61.7571 15.8355C62.0356 15.557 62.3977 15.3581 62.8433 15.2387C63.2889 15.1114 63.8221 15.0477 64.4428 15.0477H68.4295C69.1377 15.0477 69.7186 15.1472 70.1722 15.3462C70.6258 15.5371 70.9799 15.7958 71.2346 16.122C71.4972 16.4483 71.6762 16.8302 71.7717 17.2679C71.8751 17.7056 71.9269 18.1631 71.9269 18.6406V24H69.5396V18.2586C69.5396 18.004 69.5078 17.8011 69.4441 17.6499C69.3804 17.4987 69.2929 17.3873 69.1815 17.3156C69.0701 17.2361 68.9348 17.1843 68.7757 17.1605C68.6245 17.1366 68.4534 17.1247 68.2624 17.1247H67.7491V24ZM64.4667 17.1247C64.2359 17.1247 64.0449 17.1525 63.8937 17.2082C63.7505 17.2639 63.6351 17.3515 63.5476 17.4708C63.468 17.5822 63.4123 17.7294 63.3804 17.9125C63.3486 18.0955 63.3327 18.3103 63.3327 18.557V20.4907C63.3327 20.7454 63.3486 20.9642 63.3804 21.1472C63.4123 21.3223 63.468 21.4695 63.5476 21.5889C63.6351 21.7003 63.7505 21.7838 63.8937 21.8395C64.0449 21.8952 64.2359 21.9231 64.4667 21.9231H65.6006V17.1247H64.4667Z" fill="#2D2829"/>
<path d="M76.5439 20.2997C76.2893 20.2997 76.0943 20.3793 75.959 20.5385C75.8237 20.6976 75.7561 20.8926 75.7561 21.1233C75.7561 21.3462 75.8237 21.5371 75.959 21.6963C76.0943 21.8475 76.2893 21.9231 76.5439 21.9231H78.0598C78.3145 21.9231 78.5015 21.8475 78.6208 21.6963C78.7481 21.5371 78.8118 21.3422 78.8118 21.1114C78.8118 20.8806 78.7481 20.6897 78.6208 20.5385C78.5015 20.3793 78.3145 20.2997 78.0598 20.2997H76.5439ZM75.7561 17.256C75.398 17.256 75.0916 17.2003 74.837 17.0889C74.5824 16.9695 74.3715 16.8143 74.2044 16.6233C74.0452 16.4244 73.9259 16.1897 73.8463 15.9191C73.7747 15.6485 73.7389 15.3581 73.7389 15.0477H76.1023C76.15 15.2228 76.2216 15.3302 76.3171 15.37C76.4126 15.4098 76.528 15.4297 76.6633 15.4297H79.5996V17.256H78.6805V18.4377C79.1102 18.4377 79.4842 18.5172 79.8025 18.6764C80.1288 18.8355 80.3993 19.0424 80.6142 19.2971C80.829 19.5517 80.9922 19.8422 81.1036 20.1684C81.215 20.4867 81.2707 20.809 81.2707 21.1353C81.2707 21.4854 81.211 21.8316 81.0916 22.1737C80.9802 22.5159 80.8091 22.8223 80.5784 23.0928C80.3476 23.3634 80.0492 23.5822 79.6832 23.7493C79.3251 23.9164 78.9033 24 78.4179 24H76.1977C75.7044 24 75.2747 23.9204 74.9086 23.7613C74.5426 23.6021 74.2402 23.3952 74.0015 23.1406C73.7627 22.878 73.5837 22.5796 73.4643 22.2454C73.3529 21.9111 73.2972 21.569 73.2972 21.2188C73.2972 20.8767 73.3529 20.5385 73.4643 20.2042C73.5837 19.87 73.7627 19.5756 74.0015 19.321C74.2481 19.0584 74.5545 18.8475 74.9206 18.6883C75.2866 18.5212 75.7203 18.4377 76.2216 18.4377H76.2932V17.256H75.7561Z" fill="#2D2829"/>
<path d="M87.7149 24V18.2228C87.7149 18.0796 87.691 17.9443 87.6433 17.817C87.6035 17.6817 87.5279 17.5623 87.4165 17.4589C87.3051 17.3554 87.1579 17.2759 86.9749 17.2202C86.7918 17.1565 86.565 17.1247 86.2945 17.1247C86.0239 17.1247 85.7971 17.1565 85.6141 17.2202C85.4391 17.2759 85.2958 17.3554 85.1844 17.4589C85.081 17.5544 85.0054 17.6698 84.9576 17.805C84.9178 17.9403 84.8979 18.0796 84.8979 18.2228V24H82.5107V18.008C82.5107 17.4271 82.6062 16.9416 82.7971 16.5517C82.9961 16.1618 83.2627 15.8554 83.5969 15.6326C83.9391 15.4019 84.3369 15.2387 84.7905 15.1432C85.2441 15.0477 85.7335 15 86.2587 15C86.7998 15 87.3011 15.0477 87.7627 15.1432C88.2322 15.2308 88.638 15.3899 88.9802 15.6207C89.3303 15.8435 89.6048 16.1499 89.8038 16.5398C90.0027 16.9297 90.1022 17.4191 90.1022 18.008V24H87.7149Z" fill="#2D2829"/>
<path d="M94.0594 19.4284C94.0594 19.6512 94.1072 19.8422 94.2027 20.0013C94.2982 20.1605 94.4295 20.2958 94.5966 20.4072C94.7637 20.5186 94.9547 20.618 95.1695 20.7056C95.3923 20.7851 95.6231 20.8607 95.8618 20.9324C96.204 21.0358 96.5502 21.1552 96.9003 21.2905C97.2504 21.4178 97.5648 21.5968 97.8433 21.8276C98.1297 22.0504 98.3605 22.3369 98.5356 22.687C98.7186 23.0371 98.8101 23.4748 98.8101 24H96.59C96.5104 23.7931 96.387 23.618 96.2199 23.4748C96.0528 23.3236 95.8539 23.2042 95.6231 23.1167C95.4003 23.0212 95.1536 22.9536 94.8831 22.9138C94.6125 22.866 94.338 22.8422 94.0594 22.8422H91.3618V20.8369H92.0661C91.9945 20.7414 91.9308 20.6379 91.8751 20.5265C91.8274 20.4072 91.7876 20.2719 91.7557 20.1207C91.7319 19.9695 91.712 19.7944 91.6961 19.5955C91.6801 19.3966 91.6722 19.1618 91.6722 18.8912V15.0597H96.2796C97.1947 15.0597 97.9069 15.2825 98.4162 15.7281C98.9335 16.1737 99.1921 16.7984 99.1921 17.6021V19.2374H96.8048V17.8528C96.8048 17.5981 96.7491 17.4151 96.6377 17.3037C96.5343 17.1923 96.3671 17.1366 96.1364 17.1366H94.0594V19.4284Z" fill="#2D2829"/>
<path d="M105.678 24V18.2228C105.678 18.0796 105.654 17.9443 105.606 17.817C105.566 17.6817 105.491 17.5623 105.379 17.4589C105.268 17.3554 105.121 17.2759 104.938 17.2202C104.755 17.1565 104.528 17.1247 104.257 17.1247C103.987 17.1247 103.76 17.1565 103.577 17.2202C103.402 17.2759 103.259 17.3554 103.147 17.4589C103.044 17.5544 102.968 17.6698 102.92 17.805C102.881 17.9403 102.861 18.0796 102.861 18.2228V24H100.473V18.008C100.473 17.4271 100.569 16.9416 100.76 16.5517C100.959 16.1618 101.225 15.8554 101.56 15.6326C101.902 15.4019 102.3 15.2387 102.753 15.1432C103.207 15.0477 103.696 15 104.221 15C104.763 15 105.264 15.0477 105.725 15.1432C106.195 15.2308 106.601 15.3899 106.943 15.6207C107.293 15.8435 107.568 16.1499 107.767 16.5398C107.965 16.9297 108.065 17.4191 108.065 18.008V24H105.678Z" fill="#2D2829"/>
<path d="M112.022 15.0477V21.1353C112.022 21.382 112.11 21.5769 112.285 21.7202C112.468 21.8554 112.715 21.9231 113.025 21.9231C113.367 21.9231 113.606 21.8515 113.741 21.7082C113.876 21.557 113.944 21.3422 113.944 21.0637V19.8462H116.403V21.6127C116.403 22.1538 116.311 22.5836 116.128 22.9019C115.953 23.2122 115.715 23.4509 115.412 23.618C115.11 23.7772 114.752 23.8806 114.338 23.9284C113.924 23.9761 113.486 24 113.025 24C112.508 24 112.038 23.9642 111.616 23.8926C111.203 23.813 110.849 23.6698 110.554 23.4629C110.26 23.248 110.033 22.9576 109.874 22.5915C109.715 22.2175 109.635 21.7321 109.635 21.1353V15.0477H112.022Z" fill="#2D2829"/>
<path d="M122.918 24V18.2228C122.918 18.0796 122.894 17.9443 122.846 17.817C122.806 17.6817 122.731 17.5623 122.619 17.4589C122.508 17.3554 122.361 17.2759 122.178 17.2202C121.995 17.1565 121.768 17.1247 121.497 17.1247C121.227 17.1247 121 17.1565 120.817 17.2202C120.642 17.2759 120.499 17.3554 120.387 17.4589C120.284 17.5544 120.208 17.6698 120.16 17.805C120.121 17.9403 120.101 18.0796 120.101 18.2228V24H117.714V18.008C117.714 17.4271 117.809 16.9416 118 16.5517C118.199 16.1618 118.466 15.8554 118.8 15.6326C119.142 15.4019 119.54 15.2387 119.993 15.1432C120.447 15.0477 120.936 15 121.462 15C122.003 15 122.504 15.0477 122.966 15.1432C123.435 15.2308 123.841 15.3899 124.183 15.6207C124.533 15.8435 124.808 16.1499 125.007 16.5398C125.206 16.9297 125.305 17.4191 125.305 18.008V24H122.918Z" fill="#2D2829"/>
<path d="M67.7491 41H64.1205C63.4998 41 62.9826 40.9284 62.5688 40.7851C62.1629 40.634 61.8367 40.4111 61.59 40.1167C61.3513 39.8143 61.1842 39.4403 61.0887 38.9947C60.9932 38.5411 60.9454 38.008 60.9454 37.3952V35.5212C60.9454 34.8846 61.0091 34.3475 61.1364 33.9098C61.2717 33.4642 61.4786 33.1061 61.7571 32.8355C62.0356 32.557 62.3977 32.3581 62.8433 32.2387C63.2889 32.1114 63.8221 32.0477 64.4428 32.0477H68.4295C69.1377 32.0477 69.7186 32.1472 70.1722 32.3462C70.6258 32.5371 70.9799 32.7958 71.2346 33.122C71.4972 33.4483 71.6762 33.8302 71.7717 34.2679C71.8751 34.7056 71.9269 35.1631 71.9269 35.6406V41H69.5396V35.2586C69.5396 35.004 69.5078 34.8011 69.4441 34.6499C69.3804 34.4987 69.2929 34.3873 69.1815 34.3156C69.0701 34.2361 68.9348 34.1843 68.7757 34.1605C68.6245 34.1366 68.4534 34.1247 68.2624 34.1247H67.7491V41ZM64.4667 34.1247C64.2359 34.1247 64.0449 34.1525 63.8937 34.2082C63.7505 34.2639 63.6351 34.3515 63.5476 34.4708C63.468 34.5822 63.4123 34.7294 63.3804 34.9125C63.3486 35.0955 63.3327 35.3103 63.3327 35.557V37.4907C63.3327 37.7454 63.3486 37.9642 63.3804 38.1472C63.4123 38.3223 63.468 38.4695 63.5476 38.5889C63.6351 38.7003 63.7505 38.7838 63.8937 38.8395C64.0449 38.8952 64.2359 38.9231 64.4667 38.9231H65.6006V34.1247H64.4667Z" fill="#2D2829"/>
<path d="M77.7733 38.9231V35.187C77.0731 35.0676 76.5001 34.9204 76.0545 34.7454C75.6168 34.5703 75.2707 34.3793 75.016 34.1724C74.8092 34.0053 74.65 33.8342 74.5386 33.6592C74.4351 33.4841 74.3556 33.309 74.2999 33.134C74.2521 32.9589 74.2243 32.7878 74.2163 32.6207C74.2084 32.4536 74.2044 32.2944 74.2044 32.1432V32.0477H76.4245C76.4245 32.1114 76.4325 32.179 76.4484 32.2507C76.4643 32.3223 76.5081 32.4019 76.5797 32.4894C76.6513 32.5769 76.7627 32.6684 76.9139 32.7639C77.0731 32.8515 77.2879 32.943 77.5585 33.0385C77.837 33.134 78.1871 33.2294 78.6089 33.3249C79.0306 33.4204 79.5479 33.5119 80.1606 33.5995V41H76.1977C75.6168 41 75.1314 40.9562 74.7415 40.8687C74.3595 40.7732 74.0492 40.618 73.8105 40.4032C73.5797 40.1804 73.4166 39.882 73.3211 39.508C73.2256 39.134 73.1779 38.6605 73.1779 38.0875V36.8462H75.5651V38.0875C75.5651 38.2626 75.5731 38.4058 75.589 38.5172C75.6129 38.6207 75.6527 38.7042 75.7084 38.7679C75.7641 38.8236 75.8397 38.8634 75.9351 38.8873C76.0306 38.9111 76.158 38.9231 76.3171 38.9231H77.7733Z" fill="#2D2829"/>
<path d="M87.0263 38.9231V34.8886C87.0263 34.7294 86.9985 34.6021 86.9428 34.5066C86.895 34.4032 86.8314 34.3236 86.7518 34.2679C86.6802 34.2122 86.5966 34.1764 86.5011 34.1605C86.4056 34.1366 86.3102 34.1247 86.2147 34.1247H86.0356V35.8912H83.7677V34.1247H81.834V32.0477H86.3698C87.4282 32.0477 88.2001 32.2825 88.6855 32.752C89.1709 33.2215 89.4136 33.9496 89.4136 34.9363V41H84.6629C84.2651 41 83.8911 40.9523 83.5409 40.8568C83.1988 40.7533 82.9003 40.5981 82.6457 40.3912C82.3911 40.1844 82.1921 39.9218 82.0489 39.6034C81.9056 39.2851 81.834 38.9111 81.834 38.4814V36.8462H84.2213V38.2666C84.2213 38.5133 84.277 38.6844 84.3884 38.7798C84.4998 38.8753 84.7465 38.9231 85.1285 38.9231H87.0263Z" fill="#2D2829"/>
<path d="M93.7304 41C93.3325 41 92.9585 40.9523 92.6083 40.8568C92.2662 40.7613 91.9678 40.6141 91.7131 40.4151C91.4585 40.2162 91.2595 39.9615 91.1163 39.6512C90.9731 39.3329 90.9014 38.9589 90.9014 38.5292V36.8462H93.2887V38.3024C93.2887 38.5411 93.3404 38.7042 93.4439 38.7918C93.5553 38.8793 93.802 38.9231 94.1839 38.9231H95.7357V34.7692C95.7357 34.5146 95.676 34.3435 95.5566 34.256C95.4373 34.1684 95.2622 34.1247 95.0314 34.1247H93.993C93.7622 34.1247 93.5871 34.1605 93.4678 34.2321C93.3484 34.2958 93.2887 34.4629 93.2887 34.7334V35.2228H90.9014V34.5186C90.9014 34.1286 90.9452 33.7825 91.0328 33.4801C91.1282 33.1698 91.2794 32.9111 91.4863 32.7042C91.7012 32.4894 91.9837 32.3263 92.3338 32.2149C92.6839 32.1034 93.1216 32.0477 93.6468 32.0477H95.2105C95.7357 32.0477 96.1813 32.0955 96.5473 32.191C96.9134 32.2865 97.2118 32.4337 97.4426 32.6326C97.6813 32.8316 97.8524 33.0902 97.9558 33.4085C98.0672 33.7188 98.1229 34.0889 98.1229 34.5186V41H93.7304Z" fill="#2D2829"/>
<path d="M103.703 37.2997H102.068V41H99.6803V35.6406C99.6803 34.439 99.9588 33.5398 100.516 32.943C101.073 32.3462 101.968 32.0477 103.201 32.0477H108.692V34.1247H103.249C102.843 34.1247 102.545 34.2042 102.354 34.3634C102.163 34.5146 102.068 34.8011 102.068 35.2228H106.412C107.033 35.2228 107.554 35.2706 107.976 35.366C108.398 35.4536 108.732 35.6127 108.979 35.8435C109.233 36.0743 109.412 36.3886 109.516 36.7865C109.627 37.1764 109.683 37.6777 109.683 38.2905V41H107.296V38.4218C107.296 37.6737 107.001 37.2997 106.412 37.2997H105.935V39.8422H103.703V37.2997Z" fill="#2D2829"/>
<path d="M116.367 41V35.2228C116.367 35.0796 116.343 34.9443 116.295 34.817C116.255 34.6817 116.18 34.5623 116.068 34.4589C115.957 34.3554 115.81 34.2759 115.627 34.2202C115.444 34.1565 115.217 34.1247 114.946 34.1247C114.676 34.1247 114.449 34.1565 114.266 34.2202C114.091 34.2759 113.948 34.3554 113.836 34.4589C113.733 34.5544 113.657 34.6698 113.609 34.805C113.57 34.9403 113.55 35.0796 113.55 35.2228V41H111.163V35.008C111.163 34.4271 111.258 33.9416 111.449 33.5517C111.648 33.1618 111.915 32.8554 112.249 32.6326C112.591 32.4019 112.989 32.2387 113.442 32.1432C113.896 32.0477 114.385 32 114.911 32C115.452 32 115.953 32.0477 116.415 32.1432C116.884 32.2308 117.29 32.3899 117.632 32.6207C117.982 32.8435 118.257 33.1499 118.456 33.5398C118.655 33.9297 118.754 34.4191 118.754 35.008V41H116.367Z" fill="#2D2829"/>
</svg>
